<?xml version="1.0" encoding="utf-8"?>
<svg width="290" height="51" version="1.1" id="Layer_1" xmlns="http://www.w3.org/2000/svg" xmlns:xlink="http://www.w3.org/1999/xlink" x="0px" y="0px"
	 viewBox="0 0 291.05 51.25" style="enable-background:new 0 0 291.05 51.25;" xml:space="preserve">
<style type="text/css">
	.st0{fill:#75C043;}
	.st1{fill:#2A3B8F;}
	.st2{fill:none;stroke:#75C043;stroke-miterlimit:10;}
	.st3{fill:none;stroke:#2A3B8F;stroke-miterlimit:10;}
</style>
<path class="st0" d="M171.32,44.27l-0.08-0.13l-25-37.7l0,0c-0.39-0.55-1.01-0.89-1.68-0.93c-0.54,0.01-1.05,0.25-1.4,0.66l0,0
	l-0.39,0.6L122.8,37.69c5.13-4.74,10.77-8.88,16.82-12.37l5-7.06l17,26.22c0.38,0.46,0.97,0.71,1.57,0.66h7.36
	c1.12,0,0.9-0.6,0.74-0.87"/>
<path class="st0" d="M130.9,36.51c-4.3,1.73-8.24,4.26-11.61,7.45l-0.19,0.21l0,0c0,0-0.78,1,0.67,1h6.4
	c0.58,0.05,1.16-0.18,1.54-0.63l5.56-9L130.9,36.51z"/>
<path class="st1" d="M172.36,15.02h-0.12l0,0l-10.1-2.38l1.81,3.57c-39.32,15.44-45.26,27.31-45.26,27.31
	c8.37-10.56,48.14-22.16,48.14-22.16l2,3.81l4.23-8.39c0.61-1.27-0.32-1.66-0.67-1.76"/>
<path class="st0" d="M36.99,38.3v6.74H17.6c-4.61,0.01-8.82-2.61-10.86-6.74c-0.83-1.64-1.26-3.45-1.26-5.28V7.32h6.82v26.35
	c0.35,2.39,2.24,4.26,4.64,4.58L36.99,38.3z"/>
<path class="st2" d="M36.99,38.3v6.74H17.6c-4.61,0.01-8.82-2.61-10.86-6.74c-0.83-1.64-1.26-3.45-1.26-5.28V7.32h6.82v26.35
	c0.35,2.39,2.24,4.26,4.64,4.58L36.99,38.3z"/>
<path class="st0" d="M75.06,26.12c0.14,10.55-8.31,19.22-18.86,19.36c-10.55,0.14-19.22-8.31-19.36-18.86S45.15,7.4,55.7,7.26
	c0.1,0,0.19,0,0.29,0C66.46,7.22,74.98,15.65,75.06,26.12 M68.23,26.12c0.09-6.79-5.34-12.36-12.13-12.45S43.74,19.01,43.65,25.8
	s5.34,12.36,12.13,12.45c0.07,0,0.13,0,0.2,0c6.74,0.03,12.23-5.39,12.29-12.13"/>
<path class="st2" d="M75.06,26.12c0.14,10.55-8.31,19.22-18.86,19.36c-10.55,0.14-19.22-8.31-19.36-18.86S45.15,7.4,55.7,7.26
	c0.1,0,0.19,0,0.29,0C66.46,7.22,74.98,15.65,75.06,26.12z M68.23,26.12c0.09-6.79-5.34-12.36-12.13-12.45S43.74,19.01,43.65,25.8
	s5.34,12.36,12.13,12.45c0.07,0,0.13,0,0.2,0c6.74,0.03,12.23-5.39,12.29-12.13H68.23z"/>
<polygon class="st0" points="100.71,22.41 117.25,44.99 108.84,44.99 95.63,26.99 85.97,35.66 85.97,44.99 79.14,44.99 79.14,7.26 
	85.97,7.26 85.97,26.56 91.59,21.49 96.67,16.91 107.32,7.26 117.42,7.26 "/>
<polygon class="st2" points="100.71,22.41 117.25,44.99 108.84,44.99 95.63,26.99 85.97,35.66 85.97,44.99 79.14,44.99 79.14,7.26 
	85.97,7.26 85.97,26.56 91.59,21.49 96.67,16.91 107.32,7.26 117.42,7.26 "/>
<polygon class="st1" points="214.73,7.39 214.73,14.16 199,14.16 199,45.25 192.15,45.25 192.15,14.16 176.42,14.16 176.42,7.39 "/>
<polygon class="st3" points="214.73,7.39 214.73,14.16 199,14.16 199,45.25 192.15,45.25 192.15,14.16 176.42,14.16 176.42,7.39 "/>
<polygon class="st1" points="247.5,45.2 239.82,45.2 236.32,38.44 227.93,22.21 219.55,38.44 216.04,45.2 208.37,45.2 211.88,38.44 
	227.93,7.34 243.99,38.44 "/>
<polygon class="st3" points="247.5,45.2 239.82,45.2 236.32,38.44 227.93,22.21 219.55,38.44 216.04,45.2 208.37,45.2 211.88,38.44 
	227.93,7.34 243.99,38.44 "/>
<path class="st1" d="M253.3,26.27c0.05,6.76,5.57,12.21,12.33,12.17h12.33v-7.25h-12.33v-6.76h19.18V45.2h-19.18
	c-10.45,0-18.93-8.48-18.93-18.93s8.48-18.93,18.93-18.93h19.18v6.76h-19.18C258.87,14.07,253.36,19.51,253.3,26.27"/>
<path class="st3" d="M253.3,26.27c0.05,6.76,5.57,12.21,12.33,12.17h12.33v-7.25h-12.33v-6.76h19.18V45.2h-19.18
	c-10.45,0-18.93-8.48-18.93-18.93s8.48-18.93,18.93-18.93h19.18v6.76h-19.18C258.87,14.07,253.36,19.51,253.3,26.27z"/>
</svg>
